<?xml version="1.0" standalone="no"?>
<!DOCTYPE svg PUBLIC "-//W3C//DTD SVG 20010904//EN"
 "http://www.w3.org/TR/2001/REC-SVG-20010904/DTD/svg10.dtd">
<svg version="1.0" xmlns="http://www.w3.org/2000/svg"
 width="433.000000pt" height="577.000000pt" viewBox="0 0 433.000000 577.000000"
 preserveAspectRatio="xMidYMid meet">

<g transform="translate(0.000000,577.000000) scale(0.100000,-0.100000)"
fill="#000000" stroke="none">
<path d="M2323 4825 c-18 -8 -33 -18 -33 -23 0 -5 -13 -7 -29 -4 -23 3 -30 -1
-36 -17 -8 -25 -40 -28 -54 -3 -9 16 -10 16 -16 0 -4 -9 -4 -21 -1 -26 3 -5 0
-9 -7 -10 -79 -8 -94 -13 -119 -41 -15 -17 -33 -31 -40 -31 -9 0 -8 -4 2 -11
12 -8 10 -9 -7 -4 -18 5 -28 -3 -57 -48 -20 -30 -36 -59 -36 -64 0 -6 -6 -16
-14 -22 -7 -6 -24 -44 -37 -84 -12 -39 -25 -74 -29 -77 -3 -3 -7 -22 -7 -44
-1 -21 -5 -41 -10 -45 -4 -3 -10 -13 -12 -21 -2 -8 -10 -37 -18 -65 -27 -97
-43 -221 -43 -342 0 -67 4 -124 9 -127 4 -3 11 29 15 72 8 106 13 134 42 235
13 48 22 92 19 97 -4 6 -1 10 4 10 6 0 11 8 11 18 0 86 130 294 192 308 18 3
38 13 46 20 7 8 31 14 53 14 25 0 38 4 34 10 -4 6 -12 7 -18 4 -7 -4 -8 -3 -4
2 5 5 13 10 18 10 5 1 10 2 12 4 5 4 67 10 147 13 47 2 97 9 111 15 32 13 194
5 227 -11 31 -16 61 -65 46 -75 -7 -4 -11 -16 -11 -27 0 -11 -4 -38 -11 -60
-6 -22 -13 -60 -14 -85 -2 -32 -8 -45 -18 -45 -8 -1 -13 -7 -11 -15 3 -8 4
-24 4 -35 0 -11 -1 -26 -4 -34 -2 -8 21 -33 55 -59 70 -54 66 -57 -63 -60 -89
-3 -146 -16 -168 -38 -7 -7 -22 -37 -33 -68 -12 -31 -25 -58 -30 -61 -13 -8
-1 -164 16 -208 8 -21 15 -63 17 -93 2 -52 0 -56 -40 -94 -52 -50 -78 -60
-119 -47 -24 7 -41 6 -64 -3 -43 -18 -32 -34 26 -38 51 -3 88 -27 100 -64 4
-14 16 -18 54 -18 61 0 157 -48 130 -65 -6 -4 -8 -10 -5 -15 3 -5 -25 -10 -62
-13 -97 -6 -165 -16 -177 -26 -6 -5 -36 -11 -67 -14 -31 -3 -71 -12 -87 -21
-17 -9 -42 -16 -56 -16 -32 0 -43 -18 -22 -38 13 -14 34 -16 108 -15 51 2 95
7 98 13 9 15 128 16 142 2 9 -9 6 -12 -16 -12 -16 0 -25 -4 -21 -11 4 -5 17
-9 28 -8 25 2 72 -15 81 -29 11 -18 -21 -32 -80 -38 -33 -2 -79 -8 -104 -13
l-45 -7 35 -16 c71 -31 113 -40 151 -34 38 6 39 5 39 -23 0 -26 7 -32 50 -52
72 -32 65 -65 -27 -131 -68 -49 -110 -58 -256 -55 -70 1 -127 -2 -127 -7 0
-16 107 -113 150 -136 29 -15 59 -50 60 -67 0 -7 5 -13 11 -13 5 0 7 -5 4 -10
-7 -11 17 -40 33 -40 5 0 12 -9 15 -20 4 -15 14 -20 36 -20 17 0 31 4 31 8 0
24 116 35 130 13 7 -12 131 67 178 112 59 56 74 97 66 180 -9 112 10 224 62
364 33 87 51 123 63 123 39 1 89 28 129 72 35 38 42 51 36 70 -13 39 -11 186
3 181 15 -6 23 -38 23 -92 0 -24 2 -42 5 -39 8 8 45 162 45 189 0 28 -37 69
-63 69 -9 0 -18 4 -21 9 -3 5 -15 7 -26 4 -24 -6 -38 22 -23 46 16 26 25 343
13 451 -6 52 -12 109 -14 125 -2 17 -4 30 -6 30 -1 0 -3 14 -5 32 -1 17 -10
46 -19 64 -9 17 -16 48 -16 68 0 39 -23 81 -44 81 -8 0 -16 7 -20 15 -3 9 0
15 9 15 8 0 15 4 15 9 0 19 -76 99 -110 117 -19 10 -44 25 -55 35 -17 14 -58
30 -90 34 -37 6 -67 20 -75 36 -13 24 -67 38 -123 32 -30 -4 -56 0 -78 11 -38
19 -45 19 -86 1z m392 -886 c4 -6 13 -8 21 -5 7 3 16 0 20 -6 4 -6 3 -8 -4 -4
-6 3 -13 2 -17 -4 -3 -5 -2 -10 4 -10 5 0 6 -11 2 -27 -7 -28 -9 -28 -107 -33
-54 -3 -103 -4 -107 -2 -12 6 20 39 62 64 28 18 59 28 113 37 4 0 10 -4 13
-10z m-20 -109 c3 -5 3 -10 -2 -10 -4 -1 -25 -3 -46 -6 -21 -3 -46 -3 -55 1
-15 6 -15 8 3 15 28 12 93 12 100 0z m-108 -86 c-9 -9 -28 6 -21 18 4 6 10 6
17 -1 6 -6 8 -13 4 -17z m6 -21 c-7 -2 -21 -2 -30 0 -10 3 -4 5 12 5 17 0 24
-2 18 -5z m-13 -23 c0 -5 -7 -7 -15 -4 -8 4 -15 8 -15 10 0 2 7 4 15 4 8 0 15
-4 15 -10z m187 -65 c16 -5 42 -66 35 -82 -2 -7 -9 -10 -16 -6 -6 4 -5 -1 3
-11 31 -38 10 -256 -25 -256 -7 0 -12 -26 -13 -67 -3 -78 -19 -117 -68 -157
-28 -24 -36 -27 -44 -15 -12 19 -2 49 27 80 13 14 24 33 24 42 0 25 18 21 23
-5 2 -13 5 0 5 27 1 28 -5 58 -12 68 -17 23 -26 22 -21 -3 3 -13 -2 -20 -12
-20 -10 0 -13 6 -9 16 4 11 1 14 -13 12 -10 -2 -25 3 -33 9 -12 11 -40 19 -70
22 -5 1 -8 29 -8 64 0 34 -4 78 -9 97 -5 19 -11 70 -14 112 l-5 77 42 3 c48 3
195 -2 213 -7z"/>
<path d="M1930 4048 c-68 -19 -121 -76 -119 -130 0 -13 3 -17 6 -11 10 27 58
73 76 73 9 0 20 7 23 15 5 13 10 13 35 -1 16 -8 33 -13 37 -10 4 2 37 -11 72
-30 35 -19 69 -34 76 -34 6 0 17 -7 24 -15 7 -8 25 -21 40 -29 27 -13 29 -12
34 10 4 13 11 24 16 24 19 0 10 53 -13 74 -53 49 -226 85 -307 64z"/>
<path d="M2145 3860 c-5 -9 -28 -11 -74 -7 -54 5 -60 4 -32 -4 45 -13 29 -26
-40 -33 -31 -3 -72 -13 -91 -20 -35 -15 -65 -42 -56 -52 9 -8 130 -25 145 -20
7 3 13 1 13 -4 0 -6 -10 -10 -22 -10 -44 0 -8 -11 50 -15 54 -4 63 -2 84 20
13 14 34 25 51 25 30 0 35 11 12 30 -14 11 -13 14 7 24 17 9 22 19 20 36 -5
30 -2 27 -33 35 -17 4 -30 2 -34 -5z"/>
<path d="M1879 3813 c-13 -16 -12 -17 4 -4 9 7 17 15 17 17 0 8 -8 3 -21 -13z"/>
<path d="M1723 3650 c0 -25 2 -35 4 -22 2 12 2 32 0 45 -2 12 -4 2 -4 -23z"/>
<path d="M1587 3633 c-4 -3 -7 -15 -7 -25 0 -18 1 -18 24 -1 13 10 22 21 19
26 -5 9 -27 9 -36 0z"/>
<path d="M1714 3506 c-8 -22 3 -33 18 -18 9 9 9 15 0 24 -9 9 -13 7 -18 -6z"/>
<path d="M2867 2539 c30 -101 -5 -202 -160 -458 -104 -174 -192 -341 -180
-341 5 0 3 -4 -3 -8 -23 -14 -87 -161 -291 -662 -169 -414 -277 -677 -299
-725 -17 -39 -18 -39 -24 -15 -6 21 -8 17 -15 -25 l-9 -50 -8 50 c-4 29 -3 66
3 87 5 21 11 70 13 110 3 66 18 188 47 383 5 39 10 77 11 85 0 8 9 51 19 95
27 118 40 248 26 257 -9 6 -9 10 -1 16 7 4 14 52 17 123 2 64 10 127 17 140
14 28 88 98 148 140 23 17 42 33 42 37 0 4 -9 21 -20 37 -11 17 -36 62 -56
100 -43 84 -58 98 -99 90 -21 -4 -26 -3 -16 3 11 8 9 12 -9 22 -30 16 -82 1
-138 -40 -31 -22 -52 -52 -88 -125 -26 -52 -44 -98 -41 -102 4 -4 23 9 43 28
l35 34 -7 -45 c-14 -95 -41 -182 -75 -236 -43 -70 -88 -223 -154 -517 -61
-277 -108 -611 -131 -929 l-6 -98 1436 0 1436 0 0 828 0 829 -39 59 c-21 32
-56 77 -77 98 -58 57 -178 133 -248 156 -248 80 -506 195 -660 295 -47 30 -76
43 -91 39 -28 -7 -118 60 -252 188 -56 54 -104 98 -106 98 -3 0 2 -23 10 -51z
m-990 -2311 c-3 -8 -6 -5 -6 6 -1 11 2 17 5 13 3 -3 4 -12 1 -19z"/>
<path d="M1945 2471 c-3 -6 -3 -15 0 -21 3 -5 1 -10 -4 -10 -16 0 -14 -105 4
-195 16 -85 47 -150 84 -174 24 -15 24 -15 19 14 -3 17 -15 95 -27 175 -29
197 -33 214 -53 218 -9 2 -19 -2 -23 -7z"/>
<path d="M1784 2318 c-56 -58 -97 -117 -133 -191 -16 -34 -26 -46 -34 -38 -7
7 -5 18 7 35 9 14 16 29 16 33 0 4 -12 -10 -26 -32 -15 -22 -36 -48 -48 -57
-13 -11 -16 -18 -7 -18 9 0 5 -11 -13 -34 -14 -19 -26 -40 -26 -46 0 -6 -4 -9
-9 -5 -6 3 -15 -4 -21 -15 -9 -17 -14 -19 -26 -10 -7 7 -11 17 -7 23 3 6 1 7
-5 3 -7 -4 -12 -2 -12 5 0 7 -7 4 -15 -7 -13 -17 -14 -17 -15 -1 0 9 -7 17
-16 17 -14 0 -14 -2 0 -15 21 -21 29 -52 18 -71 -8 -14 -13 -11 -34 20 l-25
36 1 -32 c1 -18 5 -36 9 -39 5 -3 1 -9 -8 -12 -9 -4 -13 -3 -10 3 3 6 -3 10
-15 10 -12 0 -18 -4 -15 -10 3 -5 1 -10 -5 -10 -6 0 -9 -4 -6 -9 3 -4 -2 -17
-10 -27 -9 -10 -13 -13 -9 -7 3 7 8 21 10 30 2 10 6 25 10 35 5 11 1 16 -12
15 -18 -2 -21 16 -11 65 6 25 18 35 18 14 0 -11 4 -14 13 -9 6 4 20 6 30 5 10
-2 17 3 17 13 0 9 4 14 9 11 5 -3 12 1 15 10 9 24 8 24 -19 14 -17 -7 -25 -6
-25 1 0 6 -7 9 -15 5 -9 -3 -19 3 -25 15 -11 19 -12 18 -58 -12 -67 -46 -147
-129 -172 -180 -20 -42 -21 -58 -19 -309 0 -160 -4 -301 -11 -355 -7 -49 -10
-118 -7 -152 4 -37 0 -96 -9 -147 -10 -62 -14 -143 -12 -293 l3 -208 -34 -115
c-52 -177 -61 -212 -61 -242 l0 -28 243 0 244 0 12 41 c7 23 10 62 6 92 -9 86
-12 434 -4 557 8 128 51 425 74 510 8 30 24 107 35 170 11 63 31 156 45 205
24 86 50 206 61 290 4 22 26 86 50 141 24 56 44 105 44 109 0 4 20 30 45 58
25 28 52 66 60 83 16 33 21 114 7 114 -4 0 -31 -24 -58 -52z m-187 -320 c-3
-8 -6 -5 -6 6 -1 11 2 17 5 13 3 -3 4 -12 1 -19z m-166 -112 c-14 -36 -22 -33
-9 5 6 16 12 28 14 26 3 -2 0 -16 -5 -31z m136 -28 c-3 -8 -6 -5 -6 6 -1 11 2
17 5 13 3 -3 4 -12 1 -19z m-164 -2 c4 -10 1 -13 -8 -9 -8 3 -12 9 -9 14 7 12
11 11 17 -5z m-79 -91 c-4 -8 -11 -12 -16 -9 -6 4 -5 10 3 15 19 12 19 11 13
-6z m-47 -37 c0 -13 -1 -17 -4 -10 -3 6 -12 12 -21 13 -14 0 -13 2 3 9 11 5
20 9 20 9 1 1 1 -9 2 -21z m-47 -8 c0 -5 -4 -10 -10 -10 -5 0 -10 5 -10 10 0
6 5 10 10 10 6 0 10 -4 10 -10z m10 -64 c0 -2 -7 -7 -16 -10 -8 -3 -12 -2 -9
4 6 10 25 14 25 6z m137 -88 c-3 -8 -6 -5 -6 6 -1 11 2 17 5 13 3 -3 4 -12 1
-19z"/>
<path d="M1491 2164 c0 -11 3 -14 6 -6 3 7 2 16 -1 19 -3 4 -6 -2 -5 -13z"/>
<path d="M1505 2120 c-3 -5 -1 -10 4 -10 6 0 11 5 11 10 0 6 -2 10 -4 10 -3 0
-8 -4 -11 -10z"/>
<path d="M1566 2113 c-6 -14 -5 -15 5 -6 7 7 10 15 7 18 -3 3 -9 -2 -12 -12z"/>
<path d="M1428 2113 c6 -2 12 -14 12 -26 0 -16 -3 -18 -9 -8 -6 9 -11 10 -15
2 -4 -6 -12 -9 -17 -6 -5 4 -9 2 -9 -3 0 -21 40 -20 55 1 15 22 5 48 -19 46
-7 0 -6 -2 2 -6z"/>
<path d="M1521 2024 c0 -11 3 -14 6 -6 3 7 2 16 -1 19 -3 4 -6 -2 -5 -13z"/>
<path d="M1419 2028 c-7 -29 -5 -36 7 -31 16 6 18 19 4 28 -5 3 -10 5 -11 3z"/>
<path d="M1287 1948 c-8 -22 7 -43 33 -46 l25 -3 -26 18 c-14 10 -24 24 -22
31 3 6 3 12 0 12 -3 0 -7 -6 -10 -12z"/>
<path d="M1310 1950 c0 -6 5 -8 12 -4 8 5 9 2 5 -9 -3 -10 -2 -17 4 -17 14 0
7 32 -8 38 -7 2 -13 -1 -13 -8z"/>
<path d="M1922 430 c0 -14 2 -19 5 -12 2 6 2 18 0 25 -3 6 -5 1 -5 -13z"/>
<path d="M1912 380 c0 -14 2 -19 5 -12 2 6 2 18 0 25 -3 6 -5 1 -5 -13z"/>
</g>
</svg>
